<?xml version="1.0" standalone="no"?>
<!DOCTYPE svg PUBLIC "-//W3C//DTD SVG 20010904//EN"
 "http://www.w3.org/TR/2001/REC-SVG-20010904/DTD/svg10.dtd">
<svg version="1.0" xmlns="http://www.w3.org/2000/svg"
 width="992.000000pt" height="992.000000pt" viewBox="0 0 992.000000 992.000000"
 preserveAspectRatio="xMidYMid meet">
<metadata>
Created by potrace 1.11, written by Peter Selinger 2001-2013
</metadata>
<g transform="translate(0.000000,992.000000) scale(0.100000,-0.100000)"
fill="#000000" stroke="none">
<path d="M4983 8376 l-28 -24 -2 -470 c-1 -443 0 -472 18 -501 10 -17 30 -33
44 -37 39 -10 92 4 112 30 17 21 18 54 18 487 0 430 -2 467 -18 493 -33 50
-99 60 -144 22z"/>
<path d="M7387 7963 c-1 -1 -29 -5 -62 -8 -33 -4 -75 -8 -94 -10 -105 -12
-440 -119 -456 -146 -4 -5 -14 -9 -24 -9 -9 0 -23 -6 -29 -12 -7 -7 -17 -13
-22 -13 -15 0 -243 -153 -283 -190 -21 -19 -40 -35 -42 -35 -9 0 -148 -145
-187 -194 -22 -28 -46 -55 -54 -59 -8 -4 -14 -12 -14 -17 0 -8 -56 -96 -70
-110 -15 -15 -47 -76 -48 -93 -3 -22 -33 -37 -64 -31 -18 3 -49 7 -68 9 -19 2
-66 7 -105 11 -178 18 -568 0 -677 -32 -10 -3 -29 -7 -43 -10 -113 -19 -305
-75 -410 -119 -22 -9 -56 -24 -75 -32 -72 -30 -227 -108 -278 -140 -29 -18
-56 -33 -60 -33 -4 0 -20 -11 -36 -25 -16 -14 -33 -25 -38 -25 -4 0 -16 -7
-26 -16 -9 -8 -49 -39 -87 -67 -208 -154 -391 -344 -551 -572 -35 -51 -64 -96
-64 -101 0 -4 -7 -15 -15 -24 -18 -19 -61 -94 -76 -132 -10 -27 -11 -27 -47
-13 -53 21 -179 53 -237 60 -28 4 -68 10 -90 14 -92 15 -349 1 -470 -26 -11
-2 -31 -6 -45 -9 -95 -19 -340 -123 -431 -182 -15 -9 -41 -26 -58 -37 -17 -10
-31 -23 -31 -27 0 -4 -5 -8 -10 -8 -6 0 -16 -5 -23 -10 -99 -84 -210 -195
-259 -258 -24 -32 -46 -58 -50 -60 -5 -2 -8 -8 -8 -13 0 -5 -15 -30 -33 -56
-39 -56 -117 -208 -117 -229 0 -8 -5 -14 -12 -14 -6 0 -8 -3 -5 -7 4 -3 3 -11
-2 -17 -6 -7 -12 -23 -15 -38 -2 -14 -10 -37 -17 -50 -7 -12 -12 -24 -11 -25
1 -2 2 -4 1 -5 -2 -7 -8 -36 -14 -67 -3 -19 -8 -37 -10 -41 -4 -7 -9 -32 -21
-115 -10 -75 -11 -313 -1 -373 5 -29 7 -55 5 -57 -2 -2 -53 -7 -113 -10 -61
-3 -122 -8 -137 -11 -92 -16 -125 -23 -153 -34 -14 -5 -25 -7 -25 -5 0 3 -24
-6 -54 -19 -30 -13 -57 -22 -60 -18 -3 3 -6 0 -6 -6 0 -7 -6 -12 -14 -12 -33
0 -213 -109 -296 -179 -65 -54 -140 -131 -140 -143 0 -4 -6 -8 -12 -8 -7 0
-41 -42 -75 -93 -172 -257 -236 -476 -228 -772 2 -77 6 -151 10 -165 3 -14 8
-38 11 -55 9 -44 9 -45 28 -110 9 -33 21 -69 26 -80 65 -149 132 -266 192
-340 54 -66 184 -195 197 -195 6 0 11 -4 11 -8 0 -12 177 -126 250 -160 72
-34 209 -81 255 -88 17 -3 36 -7 43 -10 8 -2 37 -7 65 -12 64 -9 6628 -9 6677
0 108 20 152 31 220 54 134 46 252 109 365 193 62 46 191 172 235 229 14 18
30 38 36 45 19 22 106 169 127 216 26 58 66 168 73 200 3 14 7 28 10 33 3 5 7
21 9 36 3 15 7 38 10 52 9 39 18 158 17 230 0 100 -7 149 -38 289 -25 114
-111 296 -195 414 -71 100 -192 223 -279 285 -36 26 -68 51 -72 57 -4 5 -8 7
-8 3 0 -4 -16 4 -36 17 -20 14 -43 25 -50 25 -8 0 -14 3 -14 8 0 4 -15 13 -32
20 -18 8 -45 20 -60 28 -15 8 -30 14 -33 13 -3 0 -18 4 -34 10 l-27 12 17 97
c16 88 28 165 34 232 2 14 3 27 4 30 1 3 211 6 469 6 503 0 580 4 687 33 101
27 248 98 320 153 119 92 220 210 280 325 17 31 30 59 31 62 0 3 8 22 17 42
70 157 83 388 33 598 -13 57 -40 127 -54 144 -8 9 -12 17 -8 17 9 0 -52 109
-75 134 -11 11 -19 23 -19 28 0 4 -8 16 -17 26 -10 11 -36 38 -58 62 -94 102
-294 231 -397 256 -22 5 -28 12 -29 33 -7 200 -51 431 -108 566 -33 78 -41
101 -39 106 2 3 -2 12 -9 20 -6 8 -30 50 -53 94 -23 44 -57 101 -76 127 -19
27 -34 52 -34 57 0 5 -3 11 -8 13 -4 2 -27 28 -50 58 -67 85 -143 161 -275
275 -29 25 -149 105 -157 105 -6 0 -10 4 -10 9 0 22 -355 179 -450 198 -43 9
-55 11 -55 13 0 1 -9 3 -20 5 -11 2 -36 7 -55 11 -86 17 -193 27 -323 28 -65
1 -119 1 -120 -1z"/>
<path d="M2799 7372 c-26 -27 -39 -49 -39 -66 0 -27 16 -66 31 -76 18 -12 84
-66 104 -85 11 -11 49 -45 85 -75 36 -30 72 -61 81 -70 9 -8 38 -33 65 -55 26
-22 107 -91 179 -153 130 -114 185 -158 185 -148 0 2 13 1 29 -4 51 -14 111
36 111 94 0 44 -19 69 -113 148 -51 43 -106 90 -123 105 -17 15 -50 44 -74 63
-24 19 -58 49 -76 65 -29 26 -78 69 -144 125 -10 8 -35 29 -57 46 -21 18 -58
50 -83 73 -25 22 -49 41 -55 42 -5 0 -23 3 -38 5 -23 4 -36 -3 -68 -34z"/>
</g>
</svg>
